HIERARCHY
ROOT pelvis
{
  OFFSET 0 100 0
  CHANNELS 6 Xposition Yposition Zposition Zrotation Xrotation Yrotation
  JOINT pelvis_right_femur
  {
    OFFSET -10.78128 -3.44521 -0.5502486
    CHANNELS 3 Zrotation Xrotation Yrotation
    JOINT right_femur_tibia
    {
      OFFSET -0.8047443 -44.0398 -0.1307829
      CHANNELS 3 Zrotation Xrotation Yrotation
      JOINT right_tibia_foot
      {
        OFFSET 3.006224 -47.83518 -5
        CHANNELS 3 Zrotation Xrotation Yrotation
        End Site
        {
          OFFSET 0 -5 15
        }
      }
    }
  }
  JOINT pelvis_left_femur
  {
    OFFSET 10.78128 -3.44521 -0.5502486
    CHANNELS 3 Zrotation Xrotation Yrotation
    JOINT left_femur_tibia
    {
      OFFSET 0.8047443 -44.0398 -0.1307829
      CHANNELS 3 Zrotation Xrotation Yrotation
      JOINT left_tibia_foot
      {
        OFFSET -4.370144 -48.10324 -4.275266
        CHANNELS 3 Zrotation Xrotation Yrotation
        End Site
        {
          OFFSET 0 -5 15
        }
      }
    }
  }
  JOINT pelvis_spine1
  {
    OFFSET 0 6.468898 -3.129235
    CHANNELS 3 Zrotation Xrotation Yrotation
    JOINT spine1
    {
      OFFSET 0 23.15396 4.99043
      CHANNELS 3 Zrotation Xrotation Yrotation
      JOINT spine2
      {
        OFFSET 0 20.79997 -5.064912
        CHANNELS 3 Zrotation Xrotation Yrotation
        JOINT neck
        {
          OFFSET 0 14.38658 9.616178
          CHANNELS 3 Zrotation Xrotation Yrotation
          End Site
          {
            OFFSET 0 20 0
          }
        }
      }
      JOINT right_manubrium
      {
        OFFSET -5.722621 16.35077 3.967754
        CHANNELS 3 Zrotation Xrotation Yrotation
        JOINT right_clavicle
        {
          OFFSET -13.16364 1.694482 -4.693211
          CHANNELS 3 Zrotation Xrotation Yrotation
          JOINT right_humerus
          {
            OFFSET -28.5034 -0.3100689 -2.792744
            CHANNELS 3 Zrotation Xrotation Yrotation
            JOINT right_radius
            {
              OFFSET -25.15693 0.02248979 -1.271978
              CHANNELS 3 Zrotation Xrotation Yrotation
              End Site
              {
                OFFSET -15 0 0
              }
            }
          }
        }
      }
      JOINT left_manubrium
      {
        OFFSET 5.722621 16.35077 3.967754
        CHANNELS 3 Zrotation Xrotation Yrotation
        JOINT left_clavicle
        {
          OFFSET 13.16364 1.694482 -4.693211
          CHANNELS 3 Zrotation Xrotation Yrotation
          JOINT left_humerus
          {
            OFFSET 29.39168 -1.063119 -2.237045
            CHANNELS 3 Zrotation Xrotation Yrotation
            JOINT left_radius
            {
              OFFSET 24.59957 -0.9528479 0.9047498
              CHANNELS 3 Zrotation Xrotation Yrotation
              End Site
              {
                OFFSET 15 -0 -0
              }
            }
          }
        }
      }
    }
  }
}
MOTION
Frames: 15
Frame Time: 0.0416666666667
-1016.973 70.79366 545.5589 1.620095 6.812707 146.2632 -0.4198674 4.972906 -8.031384 -0 23.05452 -0 -14.32548 -5.995347 7.714026 -2.493916 -13.69204 -9.427276 -0 31.30392 -0 -2.263524 -0.1298069 14.48986 -3.268648 0.3533022 6.597674 -1.145684 10.59586 -3.03606 -2.594181 22.65522 12.33266 15.56221 -9.862658 0.06538676 13.3929 -15.49124 11.44149 68.84563 38.69794 -4.499936 -0 0 21.887 -23.59864 13.24195 4.102615 11.35521 -26.6069 -9.961922 -98.81232 5.102229 22.19202 -0 0 12.54697 24.5834 10.83533 -21.85826
-1015.178 70.85923 540.6526 1.684126 6.79723 145.7228 -0.4198674 4.972906 -8.031384 -0 23.05452 -0 -14.32548 -5.995347 7.714026 -2.493916 -13.69204 -9.427276 -0 31.30392 -0 -2.263524 -0.1298069 14.48986 -3.268648 0.3533022 6.597674 -1.145684 10.59586 -3.03606 -2.594181 22.65522 12.33266 15.56221 -9.862658 0.06538676 13.3929 -15.49124 11.44149 68.84563 38.69794 -4.499936 -0 0 21.887 -23.59864 13.24195 4.102615 11.35521 -26.6069 -9.961922 -98.81232 5.102229 22.19202 -0 0 12.54697 24.5834 10.83533 -21.85826
-1013.338 70.92479 535.7634 1.748004 6.781155 145.1824 -0.4198674 4.972906 -8.031384 -0 23.05452 -0 -14.32548 -5.995347 7.714026 -2.493916 -13.69204 -9.427276 -0 31.30392 -0 -2.263524 -0.1298069 14.48986 -3.268648 0.3533022 6.597674 -1.145684 10.59586 -3.03606 -2.594181 22.65522 12.33266 15.56221 -9.862658 0.06538676 13.3929 -15.49124 11.44149 68.84563 38.69794 -4.499936 -0 0 21.887 -23.59864 13.24195 4.102615 11.35521 -26.6069 -9.961922 -98.81232 5.102229 22.19202 -0 0 12.54697 24.5834 10.83533 -21.85826
-1011.451 70.99036 530.8917 1.811724 6.764482 144.6421 -0.4198674 4.972906 -8.031384 -0 23.05452 -0 -14.32548 -5.995347 7.714026 -2.493916 -13.69204 -9.427276 -0 31.30392 -0 -2.263524 -0.1298069 14.48986 -3.268648 0.3533022 6.597674 -1.145684 10.59586 -3.03606 -2.594181 22.65522 12.33266 15.56221 -9.862658 0.06538676 13.3929 -15.49124 11.44149 68.84563 38.69794 -4.499936 -0 0 21.887 -23.59864 13.24195 4.102615 11.35521 -26.6069 -9.961922 -98.81232 5.102229 22.19202 -0 0 12.54697 24.5834 10.83533 -21.85826
-1009.52 71.05592 526.0378 1.875281 6.747214 144.1019 -0.4198674 4.972906 -8.031384 -0 23.05452 -0 -14.32548 -5.995347 7.714026 -2.493916 -13.69204 -9.427276 -0 31.30392 -0 -2.263524 -0.1298069 14.48986 -3.268648 0.3533022 6.597674 -1.145684 10.59586 -3.03606 -2.594181 22.65522 12.33266 15.56221 -9.862658 0.06538676 13.3929 -15.49124 11.44149 68.84563 38.69794 -4.499936 -0 0 21.887 -23.59864 13.24195 4.102615 11.35521 -26.6069 -9.961922 -98.81232 5.102229 22.19202 -0 0 12.54697 24.5834 10.83533 -21.85826
-1007.542 71.12149 521.2023 1.93867 6.72935 143.5616 -0.4198674 4.972906 -8.031384 -0 23.05452 -0 -14.32548 -5.995347 7.714026 -2.493916 -13.69204 -9.427276 -0 31.30392 -0 -2.263524 -0.1298069 14.48986 -3.268648 0.3533022 6.597674 -1.145684 10.59586 -3.03606 -2.594181 22.65522 12.33266 15.56221 -9.862658 0.06538676 13.3929 -15.49124 11.44149 68.84563 38.69794 -4.499936 -0 0 21.887 -23.59864 13.24195 4.102615 11.35521 -26.6069 -9.961922 -98.81232 5.102229 22.19202 -0 0 12.54697 24.5834 10.83533 -21.85826
-1005.52 71.18706 516.3855 2.001883 6.710895 143.0214 -0.4198674 4.972906 -8.031384 -0 23.05452 -0 -14.32548 -5.995347 7.714026 -2.493916 -13.69204 -9.427276 -0 31.30392 -0 -2.263524 -0.1298069 14.48986 -3.268648 0.3533022 6.597674 -1.145684 10.59586 -3.03606 -2.594181 22.65522 12.33266 15.56221 -9.862658 0.06538676 13.3929 -15.49124 11.44149 68.84563 38.69794 -4.499936 -0 0 21.887 -23.59864 13.24195 4.102615 11.35521 -26.6069 -9.961922 -98.81232 5.102229 22.19202 -0 0 12.54697 24.5834 10.83533 -21.85826
-1003.452 71.25262 511.5878 2.064916 6.691848 142.4813 -0.4198674 4.972906 -8.031384 -0 23.05452 -0 -14.32548 -5.995347 7.714026 -2.493916 -13.69204 -9.427276 -0 31.30392 -0 -2.263524 -0.1298069 14.48986 -3.268648 0.3533022 6.597674 -1.145684 10.59586 -3.03606 -2.594181 22.65522 12.33266 15.56221 -9.862658 0.06538676 13.3929 -15.49124 11.44149 68.84563 38.69794 -4.499936 -0 0 21.887 -23.59864 13.24195 4.102615 11.35521 -26.6069 -9.961922 -98.81232 5.102229 22.19202 -0 0 12.54697 24.5834 10.83533 -21.85826
-1001.34 71.31819 506.8098 2.127762 6.672212 141.9412 -0.4198674 4.972906 -8.031384 -0 23.05452 -0 -14.32548 -5.995347 7.714026 -2.493916 -13.69204 -9.427276 -0 31.30392 -0 -2.263524 -0.1298069 14.48986 -3.268648 0.3533022 6.597674 -1.145684 10.59586 -3.03606 -2.594181 22.65522 12.33266 15.56221 -9.862658 0.06538676 13.3929 -15.49124 11.44149 68.84563 38.69794 -4.499936 -0 0 21.887 -23.59864 13.24195 4.102615 11.35521 -26.6069 -9.961922 -98.81232 5.102229 22.19202 -0 0 12.54697 24.5834 10.83533 -21.85826
-999.1827 71.38376 502.0517 2.190418 6.651988 141.4011 -0.4198674 4.972906 -8.031384 -0 23.05452 -0 -14.32548 -5.995347 7.714026 -2.493916 -13.69204 -9.427276 -0 31.30392 -0 -2.263524 -0.1298069 14.48986 -3.268648 0.3533022 6.597674 -1.145684 10.59586 -3.03606 -2.594181 22.65522 12.33266 15.56221 -9.862658 0.06538676 13.3929 -15.49124 11.44149 68.84563 38.69794 -4.499936 -0 0 21.887 -23.59864 13.24195 4.102615 11.35521 -26.6069 -9.961922 -98.81232 5.102229 22.19202 -0 0 12.54697 24.5834 10.83533 -21.85826
-996.9811 71.44932 497.314 2.252875 6.631179 140.8611 -0.4198674 4.972906 -8.031384 -0 23.05452 -0 -14.32548 -5.995347 7.714026 -2.493916 -13.69204 -9.427276 -0 31.30392 -0 -2.263524 -0.1298069 14.48986 -3.268648 0.3533022 6.597674 -1.145684 10.59586 -3.03606 -2.594181 22.65522 12.33266 15.56221 -9.862658 0.06538676 13.3929 -15.49124 11.44149 68.84563 38.69794 -4.499936 -0 0 21.887 -23.59864 13.24195 4.102615 11.35521 -26.6069 -9.961922 -98.81232 5.102229 22.19202 -0 0 12.54697 24.5834 10.83533 -21.85826
-994.7353 71.51489 492.5972 2.31513 6.609786 140.3211 -0.4198674 4.972906 -8.031384 -0 23.05452 -0 -14.32548 -5.995347 7.714026 -2.493916 -13.69204 -9.427276 -0 31.30392 -0 -2.263524 -0.1298069 14.48986 -3.268648 0.3533022 6.597674 -1.145684 10.59586 -3.03606 -2.594181 22.65522 12.33266 15.56221 -9.862658 0.06538676 13.3929 -15.49124 11.44149 68.84563 38.69794 -4.499936 -0 0 21.887 -23.59864 13.24195 4.102615 11.35521 -26.6069 -9.961922 -98.81232 5.102229 22.19202 -0 0 12.54697 24.5834 10.83533 -21.85826
-992.4454 71.58046 487.9017 2.377177 6.587811 139.7812 -0.4198674 4.972906 -8.031384 -0 23.05452 -0 -14.32548 -5.995347 7.714026 -2.493916 -13.69204 -9.427276 -0 31.30392 -0 -2.263524 -0.1298069 14.48986 -3.268648 0.3533022 6.597674 -1.145684 10.59586 -3.03606 -2.594181 22.65522 12.33266 15.56221 -9.862658 0.06538676 13.3929 -15.49124 11.44149 68.84563 38.69794 -4.499936 -0 0 21.887 -23.59864 13.24195 4.102615 11.35521 -26.6069 -9.961922 -98.81232 5.102229 22.19202 -0 0 12.54697 24.5834 10.83533 -21.85826
-990.1115 71.64602 483.2277 2.439009 6.565257 139.2413 -0.4198674 4.972906 -8.031384 -0 23.05452 -0 -14.32548 -5.995347 7.714026 -2.493916 -13.69204 -9.427276 -0 31.30392 -0 -2.263524 -0.1298069 14.48986 -3.268648 0.3533022 6.597674 -1.145684 10.59586 -3.03606 -2.594181 22.65522 12.33266 15.56221 -9.862658 0.06538676 13.3929 -15.49124 11.44149 68.84563 38.69794 -4.499936 -0 0 21.887 -23.59864 13.24195 4.102615 11.35521 -26.6069 -9.961922 -98.81232 5.102229 22.19202 -0 0 12.54697 24.5834 10.83533 -21.85826
-987.734 71.71159 478.5759 2.500622 6.542124 138.7015 -0.4198674 4.972906 -8.031384 -0 23.05452 -0 -14.32548 -5.995347 7.714026 -2.493916 -13.69204 -9.427276 -0 31.30392 -0 -2.263524 -0.1298069 14.48986 -3.268648 0.3533022 6.597674 -1.145684 10.59586 -3.03606 -2.594181 22.65522 12.33266 15.56221 -9.862658 0.06538676 13.3929 -15.49124 11.44149 68.84563 38.69794 -4.499936 -0 0 21.887 -23.59864 13.24195 4.102615 11.35521 -26.6069 -9.961922 -98.81232 5.102229 22.19202 -0 0 12.54697 24.5834 10.83533 -21.85826
